<svg width="17" height="15" viewBox="0 0 17 15" fill="none" xmlns="http://www.w3.org/2000/svg">
<path d="M14.3328 7.71777V6.76843C14.3328 5.17713 13.7007 3.65101 12.5755 2.52579C11.4502 1.40057 9.92411 0.768433 8.33281 0.768433C6.74151 0.768433 5.21539 1.40057 4.09017 2.52579C2.96495 3.65101 2.33281 5.17713 2.33281 6.76843V7.71777C1.63358 8.02565 1.06135 8.5644 0.711893 9.24381C0.362441 9.92322 0.256986 10.7021 0.413184 11.4499C0.569382 12.1978 0.97775 12.8693 1.56993 13.3521C2.1621 13.8348 2.90214 14.0995 3.66615 14.1018H4.99948V7.4351H3.66615V6.76843C3.66615 5.53076 4.15781 4.34377 5.03298 3.4686C5.90815 2.59343 7.09514 2.10177 8.33281 2.10177C9.57049 2.10177 10.7575 2.59343 11.6326 3.4686C12.5078 4.34377 12.9995 5.53076 12.9995 6.76843V7.4351H11.6661V12.7684H8.99948V14.1018H12.9995C13.7635 14.0995 14.5035 13.8348 15.0957 13.3521C15.6879 12.8693 16.0962 12.1978 16.2524 11.4499C16.4086 10.7021 16.3032 9.92322 15.9537 9.24381C15.6043 8.5644 15.032 8.02565 14.3328 7.71777ZM3.66615 12.7684C3.13571 12.7684 2.627 12.5577 2.25193 12.1826C1.87686 11.8076 1.66615 11.2989 1.66615 10.7684C1.66615 10.238 1.87686 9.72929 2.25193 9.35422C2.627 8.97915 3.13571 8.76843 3.66615 8.76843V12.7684ZM12.9995 12.7684V8.76843C13.5299 8.76843 14.0386 8.97915 14.4137 9.35422C14.7888 9.72929 14.9995 10.238 14.9995 10.7684C14.9995 11.2989 14.7888 11.8076 14.4137 12.1826C14.0386 12.5577 13.5299 12.7684 12.9995 12.7684Z" fill="#5D84C1"/>
</svg>
