<svg width="25" height="25" viewBox="0 0 25 25" fill="none" xmlns="http://www.w3.org/2000/svg">
<g clip-path="url(#clip0_16_18890)">
<path d="M24.0488 3.36719H4.29083L4.24883 3.01619C4.16288 2.28661 3.81221 1.61392 3.26332 1.12567C2.71442 0.637411 2.00546 0.367529 1.27083 0.367188L0.0488281 0.367188V2.36719H1.27083C1.51576 2.36722 1.75217 2.45714 1.9352 2.6199C2.11824 2.78266 2.23517 3.00694 2.26383 3.25019L3.84883 16.7182C3.93478 17.4478 4.28544 18.1205 4.83434 18.6087C5.38323 19.097 6.0922 19.3668 6.82683 19.3672H20.0488V17.3672H6.82683C6.58174 17.3671 6.34521 17.2771 6.16215 17.1141C5.9791 16.9511 5.86226 16.7266 5.83383 16.4832L5.70283 15.3672H21.8848L24.0488 3.36719ZM20.2128 13.3672H5.46783L4.52683 5.36719H21.6558L20.2128 13.3672Z" fill="#253D4E"/>
<path d="M7.04883 24.3672C8.1534 24.3672 9.04883 23.4718 9.04883 22.3672C9.04883 21.2626 8.1534 20.3672 7.04883 20.3672C5.94426 20.3672 5.04883 21.2626 5.04883 22.3672C5.04883 23.4718 5.94426 24.3672 7.04883 24.3672Z" fill="#253D4E"/>
<path d="M17.0488 24.3672C18.1534 24.3672 19.0488 23.4718 19.0488 22.3672C19.0488 21.2626 18.1534 20.3672 17.0488 20.3672C15.9443 20.3672 15.0488 21.2626 15.0488 22.3672C15.0488 23.4718 15.9443 24.3672 17.0488 24.3672Z" fill="#253D4E"/>
</g>
<defs>
<clipPath id="clip0_16_18890">
<rect width="24" height="24" fill="white" transform="translate(0.0488281 0.367188)"/>
</clipPath>
</defs>
</svg>
