<svg width="17" height="17" viewBox="0 0 17 17" fill="none" xmlns="http://www.w3.org/2000/svg">
<path d="M8.02279 7.85091H0.689453V2.51758C0.689453 1.98715 0.900167 1.47844 1.27524 1.10336C1.65031 0.728292 2.15902 0.517578 2.68945 0.517578L8.02279 0.517578V7.85091ZM2.02279 6.51758H6.68945V1.85091H2.68945C2.51264 1.85091 2.34307 1.92115 2.21805 2.04617C2.09302 2.1712 2.02279 2.34077 2.02279 2.51758V6.51758Z" fill="white"/>
<path d="M16.6888 7.85091H9.35547V0.517578H14.6888C15.2192 0.517578 15.7279 0.728292 16.103 1.10336C16.4781 1.47844 16.6888 1.98715 16.6888 2.51758V7.85091ZM10.6888 6.51758H15.3555V2.51758C15.3555 2.34077 15.2852 2.1712 15.1602 2.04617C15.0352 1.92115 14.8656 1.85091 14.6888 1.85091H10.6888V6.51758Z" fill="white"/>
<path d="M8.02279 16.5169H2.68945C2.15902 16.5169 1.65031 16.3062 1.27524 15.9311C0.900167 15.5561 0.689453 15.0474 0.689453 14.5169L0.689453 9.18359H8.02279V16.5169ZM2.02279 10.5169V14.5169C2.02279 14.6937 2.09302 14.8633 2.21805 14.9883C2.34307 15.1134 2.51264 15.1836 2.68945 15.1836H6.68945V10.5169H2.02279Z" fill="white"/>
<path d="M14.6888 16.5169H9.35547V9.18359H16.6888V14.5169C16.6888 15.0474 16.4781 15.5561 16.103 15.9311C15.7279 16.3062 15.2192 16.5169 14.6888 16.5169ZM10.6888 15.1836H14.6888C14.8656 15.1836 15.0352 15.1134 15.1602 14.9883C15.2852 14.8633 15.3555 14.6937 15.3555 14.5169V10.5169H10.6888V15.1836Z" fill="white"/>
</svg>
