<svg width="17" height="13" viewBox="0 0 17 13" fill="none" xmlns="http://www.w3.org/2000/svg">
<path d="M14.029 6.7756V5.85C14.029 4.29848 13.396 2.81051 12.2694 1.71343C11.1428 0.616338 9.61477 0 8.02148 0C6.4282 0 4.90018 0.616338 3.77355 1.71343C2.64693 2.81051 2.014 4.29848 2.014 5.85V6.7756C1.3139 7.07579 0.740953 7.60107 0.391064 8.26349C0.041176 8.92592 -0.0644099 9.68528 0.0919825 10.4145C0.248375 11.1436 0.657253 11.7984 1.25017 12.269C1.84308 12.7397 2.58404 12.9978 3.349 13H4.684V6.5H3.349V5.85C3.349 4.64326 3.84128 3.48595 4.71754 2.63266C5.5938 1.77937 6.78226 1.3 8.02148 1.3C9.2607 1.3 10.4492 1.77937 11.3254 2.63266C12.2017 3.48595 12.694 4.64326 12.694 5.85V6.5H11.359V11.7H8.68898V13H12.694C13.4589 12.9978 14.1999 12.7397 14.7928 12.269C15.3857 11.7984 15.7946 11.1436 15.951 10.4145C16.1074 9.68528 16.0018 8.92592 15.6519 8.26349C15.302 7.60107 14.7291 7.07579 14.029 6.7756V6.7756ZM3.349 11.7C2.81791 11.7 2.30856 11.4946 1.93302 11.1289C1.55748 10.7632 1.34651 10.2672 1.34651 9.75C1.34651 9.23283 1.55748 8.73684 1.93302 8.37114C2.30856 8.00545 2.81791 7.8 3.349 7.8V11.7ZM12.694 11.7V7.8C13.2251 7.8 13.7344 8.00545 14.1099 8.37114C14.4855 8.73684 14.6965 9.23283 14.6965 9.75C14.6965 10.2672 14.4855 10.7632 14.1099 11.1289C13.7344 11.4946 13.2251 11.7 12.694 11.7Z" fill="#253D4E"/>
</svg>
