<svg width="36" height="36" viewBox="0 0 36 36" fill="none" xmlns="http://www.w3.org/2000/svg">
<path d="M31.4991 18.636V16.5C31.4991 12.9196 30.0768 9.4858 27.545 6.95406C25.0133 4.42232 21.5795 3 17.9991 3C14.4186 3 10.9849 4.42232 8.45313 6.95406C5.92139 9.4858 4.49907 12.9196 4.49907 16.5V18.636C2.92581 19.3287 1.63827 20.5409 0.852004 22.0696C0.0657354 23.5983 -0.171537 25.3506 0.179908 27.0334C0.531353 28.7161 1.45018 30.227 2.78258 31.3132C4.11497 32.3994 5.78005 32.9949 7.49907 33H10.4991V18H7.49907V16.5C7.49907 13.7152 8.60532 11.0445 10.5744 9.07538C12.5436 7.10625 15.2143 6 17.9991 6C20.7838 6 23.4546 7.10625 25.4237 9.07538C27.3928 11.0445 28.4991 13.7152 28.4991 16.5V18H25.4991V30H19.4991V33H28.4991C30.2181 32.9949 31.8832 32.3994 33.2156 31.3132C34.548 30.227 35.4668 28.7161 35.8182 27.0334C36.1697 25.3506 35.9324 23.5983 35.1461 22.0696C34.3599 20.5409 33.0723 19.3287 31.4991 18.636ZM7.49907 30C6.3056 30 5.161 29.5259 4.31709 28.682C3.47318 27.8381 2.99907 26.6935 2.99907 25.5C2.99907 24.3065 3.47318 23.1619 4.31709 22.318C5.161 21.4741 6.3056 21 7.49907 21V30ZM28.4991 30V21C29.6925 21 30.8371 21.4741 31.6811 22.318C32.525 23.1619 32.9991 24.3065 32.9991 25.5C32.9991 26.6935 32.525 27.8381 31.6811 28.682C30.8371 29.5259 29.6925 30 28.4991 30Z" fill="#253D4E"/>
</svg>
