<svg width="21" height="21" viewBox="0 0 21 21" fill="none" xmlns="http://www.w3.org/2000/svg">
<path d="M20.0267 19.5422L14.8083 14.1415C16.1639 12.4258 16.8303 10.2364 16.6699 8.02632C16.5094 5.81625 15.5344 3.75454 13.9463 2.26765C12.3583 0.780768 10.2788 -0.0175393 8.13804 0.037858C5.99725 0.0932552 3.95893 0.998118 2.44468 2.56528C0.930443 4.13245 0.056137 6.24201 0.00261049 8.45762C-0.050916 10.6732 0.720432 12.8254 2.15711 14.4689C3.59378 16.1124 5.58587 17.1216 7.72131 17.2876C9.85675 17.4537 11.9722 16.7639 13.63 15.361L18.8483 20.7618L20.0267 19.5422ZM8.36001 15.587C7.04146 15.587 5.75253 15.1824 4.6562 14.4242C3.55988 13.6661 2.70539 12.5885 2.20081 11.3277C1.69623 10.067 1.5642 8.67969 1.82144 7.34129C2.07867 6.00288 2.71361 4.77348 3.64596 3.80854C4.57831 2.84361 5.7662 2.18648 7.0594 1.92025C8.35261 1.65403 9.69305 1.79067 10.9112 2.31288C12.1294 2.8351 13.1706 3.71945 13.9031 4.8541C14.6357 5.98874 15.0267 7.32272 15.0267 8.68735C15.0247 10.5166 14.3217 12.2704 13.0719 13.5639C11.822 14.8574 10.1275 15.585 8.36001 15.587Z" fill="#7E7E7E"/>
</svg>
