<svg width="25" height="25" viewBox="0 0 25 25" fill="none" xmlns="http://www.w3.org/2000/svg">
<g clip-path="url(#clip0_16_18885)">
<path d="M21.7188 24.3672H19.7188V19.3242C19.718 18.5402 19.4062 17.7885 18.8518 17.2341C18.2974 16.6798 17.5458 16.368 16.7617 16.3672H8.67575C7.89175 16.368 7.14009 16.6798 6.58571 17.2341C6.03134 17.7885 5.71954 18.5402 5.71875 19.3242V24.3672H3.71875V19.3242C3.72034 18.01 4.2431 16.7501 5.17238 15.8208C6.10165 14.8915 7.36156 14.3688 8.67575 14.3672H16.7617C18.0759 14.3688 19.3359 14.8915 20.2651 15.8208C21.1944 16.7501 21.7172 18.01 21.7188 19.3242V24.3672Z" fill="#253D4E"/>
<path d="M12.7188 12.3672C11.5321 12.3672 10.372 12.0153 9.38533 11.356C8.39864 10.6967 7.6296 9.75965 7.17548 8.66329C6.72135 7.56693 6.60253 6.36053 6.83404 5.19665C7.06555 4.03276 7.637 2.96366 8.47611 2.12455C9.31523 1.28543 10.3843 0.71399 11.5482 0.482479C12.7121 0.250967 13.9185 0.369787 15.0149 0.823913C16.1112 1.27804 17.0483 2.04707 17.7076 3.03377C18.3669 4.02046 18.7188 5.1805 18.7188 6.36719C18.7172 7.958 18.0845 9.4832 16.9596 10.6081C15.8348 11.733 14.3096 12.3656 12.7188 12.3672V12.3672ZM12.7188 2.36719C11.9276 2.36719 11.1543 2.60179 10.4965 3.04131C9.83868 3.48084 9.32598 4.10555 9.02323 4.83646C8.72048 5.56736 8.64127 6.37163 8.79561 7.14755C8.94995 7.92348 9.33092 8.63621 9.89033 9.19562C10.4497 9.75503 11.1625 10.136 11.9384 10.2903C12.7143 10.4447 13.5186 10.3655 14.2495 10.0627C14.9804 9.75996 15.6051 9.24727 16.0446 8.58947C16.4842 7.93167 16.7188 7.15832 16.7188 6.36719C16.7188 5.30632 16.2973 4.28891 15.5472 3.53876C14.797 2.78862 13.7796 2.36719 12.7188 2.36719Z" fill="#253D4E"/>
</g>
<defs>
<clipPath id="clip0_16_18885">
<rect width="24" height="24" fill="white" transform="translate(0.71875 0.367188)"/>
</clipPath>
</defs>
</svg>
