<svg width="16" height="17" viewBox="0 0 16 17" fill="none" xmlns="http://www.w3.org/2000/svg">
<g clip-path="url(#clip0_2_132)">
<path d="M7.99931 16.7563L7.53264 16.3563C6.88931 15.8176 1.27197 10.9663 1.27197 7.41764C1.27197 5.63344 1.98074 3.92232 3.24236 2.6607C4.50398 1.39908 6.21511 0.690308 7.99931 0.690308C9.78351 0.690308 11.4946 1.39908 12.7562 2.6607C14.0179 3.92232 14.7266 5.63344 14.7266 7.41764C14.7266 10.9663 9.10931 15.8176 8.46864 16.359L7.99931 16.7563ZM7.99931 2.14497C6.6014 2.14656 5.26119 2.70258 4.27272 3.69106C3.28425 4.67953 2.72823 6.01973 2.72664 7.41764C2.72664 9.64697 6.18264 13.2083 7.99931 14.8383C9.81597 13.2076 13.272 9.64431 13.272 7.41764C13.2704 6.01973 12.7144 4.67953 11.7259 3.69106C10.7374 2.70258 9.39722 2.14656 7.99931 2.14497Z" fill="#5D84C1"/>
<path d="M7.99919 10.0843C7.47177 10.0843 6.9562 9.92791 6.51767 9.6349C6.07914 9.34188 5.73734 8.9254 5.53551 8.43813C5.33367 7.95086 5.28087 7.41469 5.38376 6.8974C5.48665 6.38012 5.74063 5.90497 6.11357 5.53203C6.48651 5.15909 6.96166 4.90511 7.47895 4.80222C7.99623 4.69932 8.53241 4.75213 9.01968 4.95397C9.50695 5.1558 9.92342 5.49759 10.2164 5.93612C10.5095 6.37465 10.6659 6.89023 10.6659 7.41764C10.6659 8.12489 10.3849 8.80317 9.88481 9.30326C9.38471 9.80336 8.70643 10.0843 7.99919 10.0843ZM7.99919 6.08431C7.73548 6.08431 7.47769 6.16251 7.25843 6.30902C7.03916 6.45553 6.86827 6.66377 6.76735 6.9074C6.66643 7.15103 6.64003 7.41912 6.69147 7.67776C6.74292 7.93641 6.86991 8.17398 7.05638 8.36045C7.24285 8.54692 7.48043 8.67391 7.73907 8.72536C7.99771 8.77681 8.2658 8.7504 8.50943 8.64948C8.75307 8.54857 8.96131 8.37767 9.10781 8.1584C9.25432 7.93914 9.33252 7.68135 9.33252 7.41764C9.33252 7.06402 9.19205 6.72488 8.942 6.47484C8.69195 6.22479 8.35281 6.08431 7.99919 6.08431Z" fill="#5D84C1"/>
</g>
<defs>
<clipPath id="clip0_2_132">
<rect width="16" height="16" fill="white" transform="translate(-0.000488281 0.750977)"/>
</clipPath>
</defs>
</svg>
