<svg width="16" height="17" viewBox="0 0 16 17" fill="none" xmlns="http://www.w3.org/2000/svg">
<g clip-path="url(#clip0_2_136)">
<path d="M0.962139 5.08032C0.73891 5.1441 0.536204 5.26506 0.374079 5.43124C0.211954 5.59742 0.0960286 5.80305 0.0377741 6.02778C-0.0204805 6.25251 -0.0190452 6.48857 0.0419378 6.71258C0.102921 6.93658 0.221338 7.14079 0.385472 7.30498L2.66014 9.57698V13.9676H7.05547L9.34547 16.2543C9.4683 16.3784 9.61448 16.4769 9.77559 16.5442C9.9367 16.6115 10.1095 16.6462 10.2841 16.6463C10.3989 16.6461 10.5131 16.6313 10.6241 16.6023C10.8488 16.5457 11.0546 16.431 11.2207 16.2696C11.3869 16.1082 11.5077 15.9059 11.5708 15.683L15.9935 0.648315L0.962139 5.08032ZM1.33281 6.36232L12.6848 3.01565L3.99481 11.6916V9.02498L1.33281 6.36232ZM10.2928 15.3116L7.60814 12.6343H4.94147L13.6301 3.95298L10.2928 15.3116Z" fill="#5D84C1"/>
</g>
<defs>
<clipPath id="clip0_2_136">
<rect width="16" height="16" fill="white" transform="translate(-0.000488281 0.634277)"/>
</clipPath>
</defs>
</svg>
